<?xml version="1.0" encoding="utf-8"?>
<!-- Generator: Adobe Illustrator 16.0.0, SVG Export Plug-In . SVG Version: 6.00 Build 0)  -->
<!DOCTYPE svg PUBLIC "-//W3C//DTD SVG 1.1//EN" "http://www.w3.org/Graphics/SVG/1.1/DTD/svg11.dtd">
<svg version="1.1" id="Capa_1" xmlns="http://www.w3.org/2000/svg" xmlns:xlink="http://www.w3.org/1999/xlink" x="0px" y="0px"
	 width="512px" height="9.675px" viewBox="0 252.5 512 9.675" enable-background="new 0 252.5 512 9.675" xml:space="preserve">
<g>
	<g>
		<path fill="#1B8E47" d="M222.63,260.025h14.04c-1.304-0.25-4.062-0.75-7.02-1.551C226.692,259.275,223.884,259.775,222.63,260.025
			z"/>
		<path fill="#1B8E47" d="M171.686,260.025h14.09c-1.304-0.25-4.062-0.75-7.02-1.551
			C175.748,259.275,172.939,259.775,171.686,260.025z"/>
		<path fill="#1B8E47" d="M69.797,260.025h14.14c-1.253-0.2-4.062-0.75-7.07-1.551C73.859,259.275,71.051,259.775,69.797,260.025z"
			/>
		<path fill="#1B8E47" d="M18.853,260.025h14.19c-1.254-0.2-4.062-0.75-7.07-1.551C22.965,259.275,20.107,259.775,18.853,260.025z"
			/>
		<path fill="#1B8E47" d="M120.742,260.025h14.14c-1.304-0.2-4.062-0.75-7.07-1.551
			C124.803,259.275,121.996,259.775,120.742,260.025z"/>
		<path fill="#1B8E47" d="M273.524,260.025h14.04c-1.304-0.25-4.062-0.75-7.02-1.551
			C277.586,259.275,274.828,259.775,273.524,260.025z"/>
		<path fill="#1B8E47" d="M477.302,260.025h13.89c-1.354-0.25-4.062-0.75-6.92-1.551
			C481.363,259.225,478.605,259.775,477.302,260.025z"/>
		<path fill="#1B8E47" d="M25.974,257.025c4.061-1.05,7.772-1.55,7.772-1.55H18.151C18.151,255.475,21.912,255.975,25.974,257.025z"
			/>
		<path fill="#1B8E47" d="M28.38,257.725c1.956,0.601,3.811,1.4,5.165,2.25h35.701c1.404-0.899,3.209-1.649,5.165-2.25
			c-2.006-0.649-3.911-1.399-5.365-2.25c0,0,3.76,0.5,7.772,1.55c4.062-1.05,7.772-1.55,7.772-1.55
			c-1.454,0.85-3.359,1.65-5.365,2.25c1.955,0.601,3.76,1.4,5.165,2.25h35.701c1.404-0.899,3.208-1.649,5.165-2.25
			c-2.006-0.649-3.911-1.399-5.366-2.25c0,0,3.761,0.5,7.772,1.55c4.061-1.05,7.772-1.55,7.772-1.55
			c-1.455,0.85-3.36,1.65-5.365,2.25c1.956,0.601,3.76,1.4,5.164,2.25h35.702c1.404-0.899,3.209-1.649,5.165-2.25
			c-2.006-0.649-3.911-1.399-5.365-2.25c0,0,3.761,0.5,7.772,1.55c4.062-1.05,7.772-1.55,7.772-1.55
			c-1.455,0.85-3.36,1.65-5.366,2.25c1.956,0.601,3.761,1.351,5.165,2.25h35.751c1.354-0.899,3.209-1.649,5.165-2.25
			c-2.006-0.649-3.911-1.399-5.365-2.25c0,0,3.76,0.5,7.772,1.55c4.061-1.05,7.772-1.55,7.772-1.55
			c-1.455,0.85-3.36,1.65-5.365,2.25c1.955,0.601,3.76,1.351,5.165,2.25h35.751c1.354-0.899,3.208-1.649,5.164-2.25
			c-2.006-0.649-3.91-1.399-5.366-2.25c0,0,3.761,0.5,7.772,1.55c4.063-1.05,7.771-1.55,7.771-1.55
			c-1.453,0.85-3.358,1.65-5.364,2.25c1.905,0.601,3.761,1.351,5.165,2.25h35.752c1.354-0.899,3.208-1.649,5.164-2.25
			c-2.006-0.649-3.911-1.399-5.365-2.25c0,0,3.761,0.5,7.772,1.55c4.061-1.05,7.771-1.55,7.771-1.55
			c-1.454,0.85-3.36,1.65-5.365,2.25c1.905,0.601,3.76,1.351,5.165,2.25h35.75c1.354-0.899,3.21-1.649,5.115-2.25
			c-2.006-0.649-3.911-1.399-5.365-2.25c0,0,3.76,0.5,7.771,1.55c4.063-1.05,7.772-1.55,7.772-1.55
			c-1.454,0.85-3.359,1.65-5.365,2.25c1.906,0.601,3.761,1.351,5.114,2.25h36.203c1.354-0.899,3.209-1.649,5.114-2.25
			c-2.006-0.649-3.911-1.399-5.365-2.25c0,0,3.761,0.5,7.772,1.55c4.061-1.05,7.771-1.55,7.771-1.55
			c-1.454,0.85-3.359,1.65-5.364,2.25c1.904,0.601,3.761,1.351,5.113,2.25H476.6c1.354-0.899,3.21-1.649,5.114-2.25
			c-2.006-0.649-3.91-1.399-5.364-2.25c0,0,3.76,0.5,7.771,1.55c4.062-1.05,7.772-1.55,7.772-1.55c-1.455,0.85-3.36,1.65-5.366,2.25
			c1.906,0.601,3.761,1.351,5.115,2.25h1.003v-4.55h-458.9C32.291,256.325,30.386,257.075,28.38,257.725z"/>
		<path fill="#1B8E47" d="M426.357,260.025h13.939c-1.304-0.25-4.062-0.75-6.97-1.551
			C430.419,259.225,427.661,259.775,426.357,260.025z"/>
		<path fill="#1B8E47" d="M375.413,260.025h13.939c-1.304-0.25-4.062-0.75-6.97-1.551
			C379.475,259.225,376.717,259.775,375.413,260.025z"/>
		<path fill="#1B8E47" d="M324.469,260.025h13.99c-1.304-0.25-4.062-0.75-6.971-1.551
			C328.53,259.275,325.772,259.775,324.469,260.025z"/>
		<path fill="#1B8E47" d="M9.076,253.125c-5.014,0-9.076,1.05-9.076,2.4v4.25c0,1.3,4.062,2.399,9.076,2.399
			c4.663,0,8.474-0.95,8.976-2.1h0.3c1.404-0.9,3.209-1.65,5.165-2.25c-2.005-0.65-3.911-1.4-5.365-2.25l0,0
			C18.051,254.175,14.04,253.125,9.076,253.125z"/>
		<path fill="#1B8E47" d="M502.925,253.125c-5.015,0-9.076,1.05-9.076,2.4v4.25c0,1.3,4.062,2.399,9.076,2.399
			c5.014,0,9.075-1.05,9.075-2.399v-4.25C512,254.175,507.938,253.125,502.925,253.125z"/>
	</g>
</g>
</svg>
